<svg width="166" height="227" viewBox="0 0 166 227" fill="none" xmlns="http://www.w3.org/2000/svg">
<path fill-rule="evenodd" clip-rule="evenodd" d="M86.4729 47.3682C83.1704 49.3585 79.9254 50.3201 78.4022 49.9275C74.5827 48.9432 74.2315 34.9726 77.1869 29.4649C80.1422 23.9572 95.3352 21.5567 96.101 32.4691C96.3668 36.2564 94.7763 39.6364 92.4262 42.3944L96.64 62.0312H84.4L86.4729 47.3682Z" fill="#B28B67"/>
<path fill-rule="evenodd" clip-rule="evenodd" d="M84.1634 23.1171C85.7766 22.8526 90.1202 22.6708 90.9212 22.6709C91.4331 22.6709 91.9879 22.7878 92.291 22.3179C92.5393 21.933 92.4484 21.2822 92.5225 20.8356C92.6085 20.3168 92.7307 19.8047 92.8543 19.2939C93.2061 17.8404 93.738 16.4575 94.4823 15.1592C95.8788 12.7233 97.9246 10.8154 100.507 9.70511C103.36 8.47921 106.587 8.19851 109.655 8.44716C112.938 8.71319 115.91 9.7968 119.01 10.8165C121.964 11.7883 125.057 12.1707 128.147 11.6962C131.26 11.2182 133.612 9.53135 136.237 7.93037C138.925 6.29134 141.996 5.21936 145.174 5.46579C148.14 5.69589 150.874 6.92037 153.326 8.55611C155.621 10.0865 157.514 11.9278 158.583 14.5193C159.733 17.307 159.732 20.3669 157.841 22.8306C155.1 26.4016 150.012 27.3251 145.778 27.2333C143.329 27.1804 140.924 26.7334 138.612 25.9204C135.529 24.8361 132.865 22.9983 129.98 21.5072C128.627 20.8075 127.227 20.2328 125.761 19.8189C124.337 19.417 122.936 19.2327 121.647 20.0923C120.284 21.0017 119.062 21.895 117.503 22.4643C116.007 23.0104 114.422 23.3159 112.828 23.3036C109.727 23.2796 106.67 22.3135 103.658 21.6664C101.202 21.1388 98.5742 20.613 96.0702 21.1202C95.0253 21.3318 93.4991 21.7688 93.1217 22.8545C99.4735 24.0055 101.968 31.8596 100.177 37.6252C99.211 40.7371 93.4016 44.375 91.1428 42.739C89.7118 41.7025 90.5806 40.3419 91.1428 39.4436C92.2195 37.7235 92.5879 35.5139 90.5956 34.3163C88.877 33.2834 87.0701 35.7362 87.0359 35.7335C86.5636 35.6963 82.4822 33.3885 79.6702 30.0208C76.8961 30.1852 76.4753 28.3564 77.1376 26.8608C77.8 25.3651 81.9344 23.4828 84.1634 23.1171Z" fill="#191847"/>
<path d="M56.4999 25C63.4035 25 68.9999 19.4036 68.9999 12.5C68.9999 5.59644 63.4035 0 56.4999 0C49.5964 0 44 5.59644 44 12.5C44 19.4036 49.5964 25 56.4999 25Z" fill="#F6B545"/>
<path d="M56.4999 0C49.5357 0 44 5.53573 44 12.5C44 19.4643 49.5357 25 56.4999 25C63.4642 25 68.9999 19.4643 68.9999 12.5C68.9999 5.53573 63.4642 0 56.4999 0ZM56.4999 21.4285C51.5 21.4285 47.5714 17.5 47.5714 12.5C47.5714 7.5 51.5 3.57145 56.4999 3.57145C61.4999 3.57145 65.4285 7.5 65.4285 12.5C65.4285 17.5 61.4999 21.4285 56.4999 21.4285Z" fill="#FFCB5B"/>
<path d="M56.5 24.8214C63.4643 25 69 19.2856 69 12.5H68.8214C67.9286 12.5 67.2142 13.2143 67.0357 14.1072C66.6786 16.6072 65.4286 18.9285 63.6429 20.5357C62.2143 21.9643 60.2501 22.8571 58.1072 23.2143C57.2143 23.2142 56.5 23.9284 56.5 24.8214Z" fill="#F6B545"/>
<path d="M56.4999 0.178638C49.5357 1.23382e-05 44 5.71436 44 12.5H44.1786C45.0714 12.5 45.7858 11.7856 45.9643 10.8928C46.3214 8.39282 47.5714 6.07146 49.3571 4.46428C50.7856 3.03573 52.7499 2.14291 54.8928 1.78566C55.7857 1.78581 56.4999 1.07146 56.4999 0.178638Z" fill="#FFE27A"/>
<path d="M48.8215 13.7499C48.8215 8.74991 52.75 4.82136 57.75 4.82136C59.8929 4.82136 61.8572 5.53572 63.4642 6.96427C61.6785 4.82137 59.357 3.57144 56.4999 3.57144C51.4999 3.57144 47.5714 7.49999 47.5714 12.5C47.5714 15.3571 48.8213 17.6785 50.7856 19.2856C49.5357 17.8571 48.8215 15.8928 48.8215 13.7499Z" fill="#F19920"/>
<path d="M61.857 18.0356C61.6784 18.0356 61.4999 18.0356 61.3213 17.8569C60.9642 17.4998 60.9642 16.9641 61.3213 16.607C62.3927 15.5356 62.9284 13.9284 62.9284 12.4999C62.9284 11.9642 63.2855 11.6071 63.8212 11.6071C64.357 11.6071 64.7141 11.9642 64.7141 12.4999C64.7141 14.4641 63.9997 16.4284 62.7498 17.8569C62.3927 18.0356 62.0356 18.0356 61.857 18.0356Z" fill="#FFCB5B"/>
<path d="M56.5 17.8571C55.4285 17.8571 54.7143 17.1427 54.7143 16.0714V8.92853C54.7143 7.85708 55.4287 7.14288 56.5 7.14288C57.5714 7.14288 58.2856 7.85723 58.2856 8.92853V16.0713C58.2857 17.1427 57.5714 17.8571 56.5 17.8571Z" fill="#F19920"/>
<path fill-rule="evenodd" clip-rule="evenodd" d="M101.74 193.079C80.0517 193.079 62.47 176.3 62.47 155.601C62.47 134.902 80.0517 118.122 101.74 118.122C123.428 118.122 141.01 134.902 141.01 155.601C141.01 176.3 123.428 193.079 101.74 193.079Z" fill="#C5CFD6"/>
<path fill-rule="evenodd" clip-rule="evenodd" d="M40.6874 153.602C38.7905 160.245 34.0648 172.836 27.5303 187.297L21.3209 185.485C26.7532 152.211 31.2743 130.182 33.864 123.477C35.575 119.047 48.5198 119.566 47.0306 128.48C46.4061 132.218 43.9353 142.227 40.6874 153.602ZM66.2097 130.034C76.3359 132.132 97.3315 139.547 103.327 141.916C107.095 143.405 104.666 148.456 101.451 148.014C100.907 147.939 98.9811 147.724 96.1076 147.402C86.8777 146.37 67.87 144.244 53.4539 142.169C45.8631 141.077 49.9465 126.861 57.8279 128.365C60.4795 128.871 63.2999 129.431 66.2097 130.034Z" fill="#B28B67"/>
<path fill-rule="evenodd" clip-rule="evenodd" d="M33.467 119.722C34.5023 116.344 81.5633 104.354 81.5633 104.354H85.42V107.947L52.9906 124.453C53.0337 124.986 53.0073 125.549 52.9027 126.142C53.1369 138.379 47.899 147.52 42.7131 156.57C39.3219 162.489 35.9529 168.368 34.1509 175.049L22.2364 173.272C22.5835 172.385 23.1323 168.383 23.8827 162.912C25.7746 149.117 28.948 125.979 33.4 119.857C33.4156 119.836 33.4314 119.815 33.4474 119.794C33.4532 119.77 33.4597 119.746 33.467 119.722Z" fill="#1F28CF"/>
<path fill-rule="evenodd" clip-rule="evenodd" d="M82.7256 134.256C85.6928 133.662 88.4253 133.132 90.7634 132.722C105.866 130.073 110.27 121.99 107.666 104.354H79.8397C75.2942 105.66 51.6712 115.565 39.4146 120.833C31.3026 124.319 33.8597 136.889 38.4536 140.16C38.4786 140.361 38.5612 140.497 38.7084 140.558C56.1254 147.776 70.9779 147.237 80.5153 146.891C84.51 146.746 87.5722 146.635 89.5 147.142L92.5207 137.615L82.7256 134.256Z" fill="#2B44FF"/>
<path fill-rule="evenodd" clip-rule="evenodd" d="M100.075 142.487C100.186 141.321 101.165 140.376 102.324 140.543C103.22 140.673 104.177 140.864 104.725 141.131C105.965 141.736 108.142 143.309 108.142 143.309C107.441 144.747 95.5325 169.158 95.5325 169.158C95.5325 169.158 91.7094 168.541 92.5027 166.241C93.296 163.94 93.7824 162.4 93.7824 162.4L94.2689 148.277C94.2883 147.714 94.7688 147.278 95.3312 147.313L97.0784 147.423C97.0784 147.423 98.9965 145.871 99.6095 144.614C99.8622 144.096 100 143.274 100.075 142.487Z" fill="#E4E4E4"/>
<path fill-rule="evenodd" clip-rule="evenodd" d="M28.1036 184.45C29.1998 184.038 30.4786 184.504 30.8359 185.619C31.1122 186.481 31.36 187.424 31.36 188.034C31.36 189.413 30.9004 192.06 30.9004 192.06C29.3 192.06 2.13545 192.06 2.13545 192.06C2.13545 192.06 1.01421 188.353 3.42995 188.058C5.8457 187.762 7.44356 187.524 7.44356 187.524L20.3529 181.77C20.8674 181.541 21.4698 181.781 21.6845 182.302L22.3518 183.921C22.3518 183.921 24.5881 184.964 25.9863 184.964C26.563 184.964 27.3628 184.727 28.1036 184.45Z" fill="#E4E4E4"/>
<path fill-rule="evenodd" clip-rule="evenodd" d="M35.3204 82.2769L53.8 90.3912L47.8993 97.9492L34.0592 87.3397C27.1462 86.0702 23.9402 84.9796 24.4411 84.0678C24.8635 83.299 25.6494 83.2557 26.3734 83.2158C26.9373 83.1847 27.4636 83.1557 27.7511 82.7874C28.4077 81.9464 26.7872 79.3485 25.144 76.9488C23.5008 74.5492 25.041 74.6359 25.9424 74.9228C28.9572 76.6003 32.0832 79.0516 35.3204 82.2769ZM118.06 94.6993L128.511 92.6261C135.598 111.304 139.824 121.539 141.187 123.332C142.187 124.647 148.353 128.033 152.526 129.842C154.201 130.567 153.841 131.983 153.35 132.436C150.251 135.292 147.37 134.29 144.234 133.201C143.326 132.885 142.397 132.562 141.435 132.324C138.944 131.705 138.187 132.986 137.47 134.196C136.836 135.267 136.235 136.283 134.493 135.878C134.572 135.536 134.669 135.153 134.774 134.739C135.453 132.067 136.455 128.127 134.969 125.837C134.206 124.662 128.57 114.283 118.06 94.6993Z" fill="#B28B67"/>
<path fill-rule="evenodd" clip-rule="evenodd" d="M89.6556 53.5319L85.2455 52.7756C75.6401 62.0918 71.7202 84.4738 65.3189 87.4364C59.2667 90.2375 50.6872 87.5269 40.4891 83.867L37.366 90.8437C46.6319 100.867 66.3719 109.334 74.3734 104.5C87.166 96.7716 90.1193 69.1668 89.6556 53.5319Z" fill="#DB2721"/>
<path fill-rule="evenodd" clip-rule="evenodd" d="M108.88 108.943C108.88 108.943 82.3561 108.943 69.8592 108.943C68.0761 108.943 68.4121 106.369 68.6698 105.07C71.6446 90.0784 83.2569 73.9181 83.2569 52.5777L94.5124 50.813C103.822 65.7833 107.042 84.2148 108.88 108.943Z" fill="#DDE3E9"/>
<path fill-rule="evenodd" clip-rule="evenodd" d="M95.11 50.813H95.2385C120.484 66.3677 135.741 90.4797 141.01 123.149L132.831 124.751C127.413 118.44 120.727 108.111 112.772 93.7648C115.212 102.407 116.994 111.27 117.55 119.652H82.4252C75.6254 102.47 90.782 50.813 90.782 50.813H93.207H95.11Z" fill="#FF4133"/>
<path d="M139 62C147.284 62 154 55.2843 154 47C154 38.7157 147.284 32 139 32C130.716 32 124 38.7157 124 47C124 55.2843 130.716 62 139 62Z" fill="#F6B545"/>
<path d="M139 32C130.643 32 124 38.6429 124 47C124 55.3571 130.643 62 139 62C147.357 62 154 55.3571 154 47C154 38.6429 147.357 32 139 32ZM139 57.7143C133 57.7143 128.286 53 128.286 47C128.286 41 133 36.2857 139 36.2857C145 36.2857 149.714 41 149.714 47C149.714 53 145 57.7143 139 57.7143Z" fill="#FFCB5B"/>
<path d="M139 61.7856C147.357 62 154 55.1427 154 47H153.786C152.714 47 151.857 47.8572 151.643 48.9286C151.214 51.9286 149.714 54.7142 147.571 56.6428C145.857 58.3571 143.5 59.4285 140.929 59.8572C139.857 59.857 139 60.714 139 61.7856Z" fill="#F6B545"/>
<path d="M139 32.2144C130.643 32 124 38.8572 124 47H124.214C125.286 47 126.143 46.1428 126.357 45.0714C126.786 42.0714 128.286 39.2857 130.429 37.3571C132.143 35.6429 134.5 34.5715 137.071 34.1428C138.143 34.143 139 33.2858 139 32.2144Z" fill="#FFE27A"/>
<path d="M129.786 48.4999C129.786 42.4999 134.5 37.7856 140.5 37.7856C143.072 37.7856 145.429 38.6429 147.357 40.3571C145.214 37.7856 142.429 36.2857 139 36.2857C133 36.2857 128.286 41 128.286 47C128.286 50.4285 129.786 53.2141 132.143 55.1428C130.643 53.4285 129.786 51.0714 129.786 48.4999Z" fill="#F19920"/>
<path d="M145.429 53.6427C145.214 53.6427 145 53.6427 144.786 53.4283C144.357 52.9998 144.357 52.3569 144.786 51.9284C146.071 50.6427 146.714 48.7141 146.714 46.9998C146.714 46.357 147.143 45.9284 147.786 45.9284C148.429 45.9284 148.857 46.357 148.857 46.9998C148.857 49.3569 148 51.7141 146.5 53.4283C146.071 53.6427 145.643 53.6427 145.429 53.6427Z" fill="#FFCB5B"/>
<path d="M139 53.4285C137.714 53.4285 136.857 52.5713 136.857 51.2858V42.7143C136.857 41.4285 137.714 40.5715 139 40.5715C140.286 40.5715 141.143 41.4287 141.143 42.7143V51.2856C141.143 52.5713 140.286 53.4285 139 53.4285Z" fill="#F19920"/>
<path d="M29.9999 62C37.7319 62 43.9999 55.732 43.9999 48C43.9999 40.268 37.7319 34 29.9999 34C22.268 34 16 40.268 16 48C16 55.732 22.268 62 29.9999 62Z" fill="#F6B545"/>
<path d="M29.9999 34C22.2 34 16 40.2 16 48C16 55.8 22.2 62 29.9999 62C37.7999 62 43.9999 55.8 43.9999 48C43.9999 40.2 37.7999 34 29.9999 34ZM29.9999 58C24.4 58 20 53.6 20 48C20 42.4 24.4 38 29.9999 38C35.5999 38 39.9999 42.4 39.9999 48C39.9999 53.6 35.5999 58 29.9999 58Z" fill="#FFCB5B"/>
<path d="M30 61.7999C37.8 62 44 55.5999 44 48H43.7999C42.8 48 41.9999 48.8001 41.8 49.8C41.4 52.6 40 55.2 38.0001 57C36.4001 58.6 34.2001 59.6 31.8001 60.0001C30.8001 59.9999 30 60.7998 30 61.7999Z" fill="#F6B545"/>
<path d="M30 34.2001C22.2 34 16 40.4001 16 48H16.2001C17.2 48 18.0001 47.1999 18.2 46.1999C18.5999 43.3999 20 40.8 21.9999 39C23.5999 37.4 25.7999 36.4 28.1999 35.9999C29.2001 36.0001 30 35.2 30 34.2001Z" fill="#FFE27A"/>
<path d="M21.4001 49.4C21.4001 43.8 25.8001 39.4 31.4001 39.4C33.8001 39.4 36.0001 40.2001 37.7999 41.8C35.8 39.4 33.1999 38.0001 30 38.0001C24.4 38.0001 20 42.4 20 48C20 51.2 21.3999 53.7999 23.5999 55.6C22.2 54 21.4001 51.8 21.4001 49.4Z" fill="#F19920"/>
<path d="M35.9999 54.1998C35.7998 54.1998 35.5999 54.1998 35.3999 53.9998C34.9999 53.5998 34.9999 52.9998 35.3999 52.5999C36.5999 51.3998 37.1999 49.5998 37.1999 47.9998C37.1999 47.3998 37.5999 46.9999 38.1999 46.9999C38.7999 46.9999 39.1998 47.3998 39.1998 47.9998C39.1998 50.1998 38.3998 52.3998 36.9999 53.9998C36.5999 54.1998 36.1999 54.1998 35.9999 54.1998Z" fill="#FFCB5B"/>
<path d="M29.9999 53.9999C28.7998 53.9999 27.9999 53.1998 27.9999 52V44C27.9999 42.7999 28.8 42 29.9999 42C31.1999 42 31.9998 42.8001 31.9998 44V51.9998C32 53.1998 31.1999 53.9999 29.9999 53.9999Z" fill="#F19920"/>
</svg>
